<?xml version="1.0" encoding="UTF-8" standalone="no"?>
<!-- Created with Inkscape (http://www.inkscape.org/) -->
<svg
   xmlns:svg="http://www.w3.org/2000/svg"
   xmlns="http://www.w3.org/2000/svg"
   version="1.0"
   width="692pt"
   height="461pt"
   id="svg2">
  <defs
     id="defs4" />
  <g
     id="layer1">
    <g
       transform="matrix(1.116516,0,0,2.064083,17.1409,-243.5462)"
       id="g1329">
      <g
         transform="matrix(1.125576,0,0,1.177863,-9.453632,-88.77487)"
         id="g1319">
        <path
           d="M 532.77833,367.05031 L 336.77427,214.99846"
           style="fill:none;fill-opacity:0.75;fill-rule:evenodd;stroke:#000000;stroke-width:1.67904198px;stroke-linecap:butt;stroke-linejoin:miter;stroke-opacity:1"
           id="path1313" />
        <path
           d="M 337.55213,215.17672 L 141.54807,367.22857"
           style="fill:none;fill-opacity:0.75;fill-rule:evenodd;stroke:#000000;stroke-width:1.67904198px;stroke-linecap:butt;stroke-linejoin:miter;stroke-opacity:1"
           id="path1317" />
      </g>
      <path
         d="M 9.2849297,343.77398 L 150.48366,343.60337"
         style="fill:none;fill-opacity:0.75;fill-rule:evenodd;stroke:#000000;stroke-width:1.83074248px;stroke-linecap:butt;stroke-linejoin:miter;stroke-opacity:1"
         id="path1325" />
      <path
         d="M 589.6163,343.39273 L 730.81504,343.22212"
         style="fill:none;fill-opacity:0.75;fill-rule:evenodd;stroke:#000000;stroke-width:1.83074248px;stroke-linecap:butt;stroke-linejoin:miter;stroke-opacity:1"
         id="path1327" />
    </g>
    <path
       d="M 22.092753,242.42437 L 27.665188,242.42437 L 27.665188,243.42788 L 23.28516,243.42788 L 23.28516,246.037 L 27.482195,246.037 L 27.482195,247.04051 L 23.28516,247.04051 L 23.28516,250.23404 L 27.771442,250.23404 L 27.771442,251.23755 L 22.092753,251.23755 L 22.092753,242.42437 M 35.191516,244.62619 L 32.8008,247.84332 L 35.315479,251.23755 L 34.034527,251.23755 L 32.110148,248.64023 L 30.18577,251.23755 L 28.904818,251.23755 L 31.472624,247.77839 L 29.123229,244.62619 L 30.404181,244.62619 L 32.157372,246.98148 L 33.910564,244.62619 L 35.191516,244.62619 M 37.900993,250.24584 L 37.900993,253.75223 L 36.808938,253.75223 L 36.808938,244.62619 L 37.900993,244.62619 L 37.900993,245.6297 C 38.12924,245.23617 38.416519,244.94495 38.762832,244.75605 C 39.113073,244.56323 39.530218,244.46681 40.014268,244.4668 C 40.817071,244.46681 41.468369,244.78557 41.968162,245.42309 C 42.471878,246.06062 42.723739,246.89885 42.723746,247.93777 C 42.723739,248.9767 42.471878,249.81493 41.968162,250.45245 C 41.468369,251.08997 40.817071,251.40874 40.014268,251.40874 C 39.530218,251.40874 39.113073,251.31429 38.762832,251.12539 C 38.416519,250.93256 38.12924,250.63938 37.900993,250.24584 M 41.596273,247.93777 C 41.596267,247.1389 41.430983,246.51318 41.100421,246.06062 C 40.773783,245.60412 40.323187,245.37587 39.748633,245.37587 C 39.174071,245.37587 38.721508,245.60412 38.390943,246.06062 C 38.064307,246.51318 37.900991,247.1389 37.900993,247.93777 C 37.900991,248.73665 38.064307,249.36433 38.390943,249.82083 C 38.721508,250.27339 39.174071,250.49967 39.748633,250.49967 C 40.323187,250.49967 40.773783,250.27339 41.100421,249.82083 C 41.430983,249.36433 41.596267,248.73665 41.596273,247.93777 M 47.086066,245.38767 C 46.503634,245.38768 46.0432,245.61593 45.704764,246.07242 C 45.366323,246.52499 45.197104,247.14677 45.197106,247.93777 C 45.197104,248.72877 45.364355,249.35252 45.698861,249.80902 C 46.037297,250.26159 46.499698,250.48787 47.086066,250.48787 C 47.664556,250.48787 48.123022,250.25962 48.461466,249.80312 C 48.799899,249.34662 48.969119,248.72484 48.969124,247.93777 C 48.969119,247.15464 48.799899,246.53483 48.461466,246.07832 C 48.123022,245.6179 47.664556,245.38768 47.086066,245.38767 M 47.086066,244.4668 C 48.030542,244.46681 48.772352,244.77377 49.311498,245.38767 C 49.850633,246.00159 50.120203,246.85162 50.12021,247.93777 C 50.120203,249.01999 49.850633,249.87002 49.311498,250.48787 C 48.772352,251.10178 48.030542,251.40874 47.086066,251.40874 C 46.137648,251.40874 45.39387,251.10178 44.854731,250.48787 C 44.319525,249.87002 44.051922,249.01999 44.051923,247.93777 C 44.051922,246.85162 44.319525,246.00159 44.854731,245.38767 C 45.39387,244.77377 46.137648,244.46681 47.086066,244.4668 M 56.129465,244.82098 L 56.129465,245.84811 C 55.822504,245.6907 55.503742,245.57264 55.173179,245.49393 C 54.842607,245.41523 54.500233,245.37587 54.146056,245.37587 C 53.606913,245.37587 53.201574,245.45851 52.930038,245.62379 C 52.662433,245.78908 52.528632,246.03701 52.528634,246.36757 C 52.528632,246.61944 52.625048,246.81817 52.817881,246.96377 C 53.01071,247.10545 53.39834,247.24122 53.980772,247.37108 L 54.352662,247.45372 C 55.123983,247.61901 55.670994,247.85316 55.993696,248.15618 C 56.320323,248.45527 56.48364,248.87438 56.483645,249.41352 C 56.48364,250.02743 56.239649,250.51345 55.751673,250.87156 C 55.267622,251.22968 54.600584,251.40874 53.750555,251.40874 C 53.396373,251.40874 53.026451,251.37332 52.640791,251.30248 C 52.259062,251.23558 51.85569,251.13326 51.430675,250.99553 L 51.430675,249.87395 C 51.832078,250.08253 52.227579,250.23994 52.617179,250.34619 C 53.006775,250.44851 53.392437,250.49967 53.774167,250.49967 C 54.285757,250.49967 54.67929,250.4131 54.954768,250.23994 C 55.230237,250.06285 55.367973,249.81493 55.367978,249.49616 C 55.367973,249.20101 55.267622,248.97473 55.066925,248.81732 C 54.870154,248.65991 54.4353,248.5084 53.762361,248.36279 L 53.384569,248.27424 C 52.711625,248.13257 52.225612,247.91613 51.926528,247.62491 C 51.627441,247.32976 51.477899,246.92639 51.477899,246.4148 C 51.477899,245.79302 51.698277,245.31291 52.139036,244.97446 C 52.579791,244.63603 53.205509,244.46681 54.01619,244.4668 C 54.417591,244.46681 54.795383,244.49633 55.149567,244.55535 C 55.503742,244.61439 55.830375,244.70293 56.129465,244.82098 M 58.219129,244.62619 L 59.305281,244.62619 L 59.305281,251.23755 L 58.219129,251.23755 L 58.219129,244.62619 M 58.219129,242.05248 L 59.305281,242.05248 L 59.305281,243.42788 L 58.219129,243.42788 L 58.219129,242.05248 M 62.64638,242.74903 L 62.64638,244.62619 L 64.883618,244.62619 L 64.883618,245.47031 L 62.64638,245.47031 L 62.64638,249.05934 C 62.646378,249.59848 62.719182,249.94479 62.864791,250.09827 C 63.014332,250.25175 63.315384,250.32849 63.767951,250.32849 L 64.883618,250.32849 L 64.883618,251.23755 L 63.767951,251.23755 C 62.929722,251.23755 62.351228,251.0821 62.032468,250.77121 C 61.713705,250.45639 61.554324,249.88576 61.554325,249.05934 L 61.554325,245.47031 L 60.75742,245.47031 L 60.75742,244.62619 L 61.554325,244.62619 L 61.554325,242.74903 L 62.64638,242.74903 M 66.318048,244.62619 L 67.4042,244.62619 L 67.4042,251.23755 L 66.318048,251.23755 L 66.318048,244.62619 M 66.318048,242.05248 L 67.4042,242.05248 L 67.4042,243.42788 L 66.318048,243.42788 L 66.318048,242.05248 M 72.232856,245.38767 C 71.650423,245.38768 71.189989,245.61593 70.851553,246.07242 C 70.513113,246.52499 70.343893,247.14677 70.343895,247.93777 C 70.343893,248.72877 70.511145,249.35252 70.84565,249.80902 C 71.184086,250.26159 71.646488,250.48787 72.232856,250.48787 C 72.811346,250.48787 73.269812,250.25962 73.608255,249.80312 C 73.946689,249.34662 74.115908,248.72484 74.115914,247.93777 C 74.115908,247.15464 73.946689,246.53483 73.608255,246.07832 C 73.269812,245.6179 72.811346,245.38768 72.232856,245.38767 M 72.232856,244.4668 C 73.177332,244.46681 73.919142,244.77377 74.458288,245.38767 C 74.997422,246.00159 75.266992,246.85162 75.266999,247.93777 C 75.266992,249.01999 74.997422,249.87002 74.458288,250.48787 C 73.919142,251.10178 73.177332,251.40874 72.232856,251.40874 C 71.284437,251.40874 70.54066,251.10178 70.001521,250.48787 C 69.466315,249.87002 69.198712,249.01999 69.198713,247.93777 C 69.198712,246.85162 69.466315,246.00159 70.001521,245.38767 C 70.54066,244.77377 71.284437,244.46681 72.232856,244.4668 M 82.557208,247.24712 L 82.557208,251.23755 L 81.471056,251.23755 L 81.471056,247.28254 C 81.47105,246.65682 81.349055,246.18852 81.10507,245.87762 C 80.861074,245.56674 80.495088,245.41129 80.007111,245.41128 C 79.420743,245.41129 78.958341,245.59822 78.619906,245.97207 C 78.281464,246.34593 78.112245,246.85556 78.112247,247.50095 L 78.112247,251.23755 L 77.020192,251.23755 L 77.020192,244.62619 L 78.112247,244.62619 L 78.112247,245.65331 C 78.371977,245.25585 78.676965,244.95873 79.027213,244.76195 C 79.381389,244.56519 79.788696,244.46681 80.249134,244.4668 C 81.008649,244.46681 81.583207,244.70293 81.972811,245.17516 C 82.362403,245.64348 82.557202,246.33413 82.557208,247.24712"
       transform="matrix(2.607718,0,0,3.214176,-29.45144,-306.0824)"
       style="font-size:12.08934879px;font-style:normal;font-variant:normal;font-weight:normal;font-stretch:normal;text-align:start;line-height:125%;writing-mode:lr-tb;text-anchor:start;font-family:Bitstream Vera Sans"
       id="flowRoot1336" />
    <path
       d="M 23.525306,243.82994 L 23.525306,251.37516 L 25.111037,251.37516 C 26.449805,251.37516 27.428971,251.07188 28.048539,250.46531 C 28.672426,249.85875 28.984373,248.90125 28.984381,247.5928 C 28.984373,246.29303 28.672426,245.34202 28.048539,244.73978 C 27.428971,244.13323 26.449805,243.82995 25.111037,243.82994 L 23.525306,243.82994 M 22.212529,242.75112 L 24.909571,242.75112 C 26.789913,242.75113 28.169845,243.14323 29.04937,243.92742 C 29.928878,244.7073 30.368637,245.92909 30.368646,247.5928 C 30.368637,249.26519 29.926712,250.49348 29.042871,251.27768 C 28.159013,252.06188 26.781248,252.45398 24.909571,252.45398 L 22.212529,252.45398 L 22.212529,242.75112 M 38.628746,248.51564 L 38.628746,249.10054 L 33.130678,249.10054 C 33.182667,249.92374 33.429625,250.55197 33.871552,250.98523 C 34.317807,251.41415 34.937368,251.62862 35.730237,251.62862 C 36.189488,251.62862 36.633579,251.57229 37.062511,251.45964 C 37.495765,251.347 37.924692,251.17803 38.349293,250.95273 L 38.349293,252.08354 C 37.920359,252.26551 37.480601,252.40415 37.030017,252.49947 C 36.579421,252.59479 36.122332,252.64244 35.658749,252.64244 C 34.497609,252.64244 33.576933,252.3045 32.896717,251.62862 C 32.220831,250.95273 31.882889,250.03855 31.882889,248.88608 C 31.882889,247.69462 32.203501,246.75012 32.844726,246.05256 C 33.490281,245.35069 34.358966,244.99975 35.450785,244.99974 C 36.429947,244.99975 37.203315,245.31603 37.770891,245.94858 C 38.342787,246.57681 38.628738,247.4325 38.628746,248.51564 M 37.432949,248.1647 C 37.424277,247.51049 37.240142,246.98841 36.880542,246.59847 C 36.525264,246.20854 36.053011,246.01357 35.463782,246.01357 C 34.796558,246.01357 34.261483,246.20204 33.858554,246.57897 C 33.459953,246.95591 33.230325,247.48666 33.169671,248.1712 L 37.432949,248.1647 M 46.641888,248.06072 L 46.641888,252.45398 L 45.44609,252.45398 L 45.44609,248.09971 C 45.446084,247.41084 45.311774,246.89526 45.043159,246.55298 C 44.774532,246.21071 44.371601,246.03957 43.834363,246.03956 C 43.188802,246.03957 42.679723,246.24537 42.307122,246.65696 C 41.934516,247.06856 41.748215,247.62963 41.748217,248.34017 L 41.748217,252.45398 L 40.545921,252.45398 L 40.545921,245.17521 L 41.748217,245.17521 L 41.748217,246.30602 C 42.034166,245.86843 42.369942,245.54132 42.755546,245.32468 C 43.145476,245.10806 43.5939,244.99975 44.100818,244.99974 C 44.937004,244.99975 45.569563,245.2597 45.998497,245.77961 C 46.427417,246.29519 46.64188,247.05556 46.641888,248.06072 M 51.860503,246.01357 C 51.219275,246.01357 50.712362,246.26486 50.339761,246.76744 C 49.967155,247.26569 49.780854,247.95024 49.780856,248.82109 C 49.780854,249.69195 49.964989,250.37866 50.333262,250.88124 C 50.705863,251.37949 51.214943,251.62862 51.860503,251.62862 C 52.497391,251.62862 53.002138,251.37733 53.374747,250.87474 C 53.747344,250.37216 53.933646,249.68761 53.933652,248.82109 C 53.933646,247.95891 53.747344,247.27653 53.374747,246.77394 C 53.002138,246.26703 52.497391,246.01357 51.860503,246.01357 M 51.860503,244.99974 C 52.900322,244.99975 53.717016,245.33769 54.310588,246.01357 C 54.904147,246.68946 55.20093,247.6253 55.200937,248.82109 C 55.20093,250.01256 54.904147,250.9484 54.310588,251.62862 C 53.717016,252.3045 52.900322,252.64244 51.860503,252.64244 C 50.816344,252.64244 49.997484,252.3045 49.40392,251.62862 C 48.814685,250.9484 48.520069,250.01256 48.52007,248.82109 C 48.520069,247.6253 48.814685,246.68946 49.40392,246.01357 C 49.997484,245.33769 50.816344,244.99975 51.860503,244.99974 M 57.053122,249.58146 L 57.053122,245.17521 L 58.248919,245.17521 L 58.248919,249.53597 C 58.248917,250.22486 58.383227,250.7426 58.651851,251.08921 C 58.920469,251.43148 59.3234,251.60262 59.860646,251.60262 C 60.506199,251.60262 61.015279,251.39682 61.387887,250.98523 C 61.764817,250.57363 61.953285,250.01256 61.953291,249.30201 L 61.953291,245.17521 L 63.149089,245.17521 L 63.149089,252.45398 L 61.953291,252.45398 L 61.953291,251.33617 C 61.663002,251.77809 61.325059,252.10737 60.939463,252.324 C 60.55819,252.5363 60.114099,252.64244 59.607189,252.64244 C 58.770995,252.64244 58.13627,252.38249 57.703012,251.86258 C 57.269751,251.34267 57.053121,250.5823 57.053122,249.58146 M 71.851116,248.51564 L 71.851116,249.10054 L 66.353048,249.10054 C 66.405037,249.92374 66.651995,250.55197 67.093922,250.98523 C 67.540177,251.41415 68.159738,251.62862 68.952607,251.62862 C 69.411858,251.62862 69.855949,251.57229 70.284881,251.45964 C 70.718135,251.347 71.147062,251.17803 71.571663,250.95273 L 71.571663,252.08354 C 71.142729,252.26551 70.702971,252.40415 70.252387,252.49947 C 69.801791,252.59479 69.344703,252.64244 68.881119,252.64244 C 67.71998,252.64244 66.799303,252.3045 66.119088,251.62862 C 65.443201,250.95273 65.105259,250.03855 65.105259,248.88608 C 65.105259,247.69462 65.425871,246.75012 66.067096,246.05256 C 66.712651,245.35069 67.581337,244.99975 68.673155,244.99974 C 69.652317,244.99975 70.425685,245.31603 70.993261,245.94858 C 71.565157,246.57681 71.851108,247.4325 71.851116,248.51564 M 70.655319,248.1647 C 70.646647,247.51049 70.462512,246.98841 70.102912,246.59847 C 69.747634,246.20854 69.275381,246.01357 68.686152,246.01357 C 68.018929,246.01357 67.483853,246.20204 67.080925,246.57897 C 66.682323,246.95591 66.452696,247.48666 66.392041,248.1712 L 70.655319,248.1647 M 79.480821,246.57247 C 79.779763,246.03524 80.137202,245.6388 80.553139,245.38317 C 80.96906,245.12756 81.458643,244.99975 82.02189,244.99974 C 82.780085,244.99975 83.364985,245.2662 83.776593,245.7991 C 84.188178,246.32769 84.393976,247.08156 84.393988,248.06072 L 84.393988,252.45398 L 83.191692,252.45398 L 83.191692,248.09971 C 83.191681,247.40217 83.068202,246.88443 82.821255,246.54648 C 82.574286,246.20854 82.197351,246.03957 81.690446,246.03956 C 81.070876,246.03957 80.581293,246.24537 80.221695,246.65696 C 79.862082,247.06856 79.68228,247.62963 79.682287,248.34017 L 79.682287,252.45398 L 78.47999,252.45398 L 78.47999,248.09971 C 78.479985,247.39784 78.356506,246.88009 78.109553,246.54648 C 77.86259,246.20854 77.481321,246.03957 76.965747,246.03956 C 76.354847,246.03957 75.869596,246.24753 75.509994,246.66346 C 75.150386,247.07506 74.970583,247.63396 74.970585,248.34017 L 74.970585,252.45398 L 73.768289,252.45398 L 73.768289,245.17521 L 74.970585,245.17521 L 74.970585,246.30602 C 75.243536,245.85977 75.570647,245.53049 75.951919,245.31819 C 76.333184,245.1059 76.78594,244.99975 77.310189,244.99974 C 77.838761,244.99975 78.287184,245.13406 78.655461,245.40267 C 79.028058,245.6713 79.303177,246.06123 79.480821,246.57247 M 93.011528,248.51564 L 93.011528,249.10054 L 87.51346,249.10054 C 87.565449,249.92374 87.812407,250.55197 88.254334,250.98523 C 88.700589,251.41415 89.32015,251.62862 90.113019,251.62862 C 90.57227,251.62862 91.016361,251.57229 91.445293,251.45964 C 91.878547,251.347 92.307474,251.17803 92.732075,250.95273 L 92.732075,252.08354 C 92.303141,252.26551 91.863383,252.40415 91.412799,252.49947 C 90.962203,252.59479 90.505114,252.64244 90.041531,252.64244 C 88.880391,252.64244 87.959715,252.3045 87.279499,251.62862 C 86.603613,250.95273 86.265671,250.03855 86.265671,248.88608 C 86.265671,247.69462 86.586283,246.75012 87.227508,246.05256 C 87.873063,245.35069 88.741748,244.99975 89.833567,244.99974 C 90.812729,244.99975 91.586097,245.31603 92.153673,245.94858 C 92.725569,246.57681 93.01152,247.4325 93.011528,248.51564 M 91.815731,248.1647 C 91.807059,247.51049 91.622924,246.98841 91.263324,246.59847 C 90.908046,246.20854 90.435793,246.01357 89.846564,246.01357 C 89.17934,246.01357 88.644265,246.20204 88.241336,246.57897 C 87.842735,246.95591 87.613107,247.48666 87.552453,248.1712 L 91.815731,248.1647 M 101.02467,248.06072 L 101.02467,252.45398 L 99.828874,252.45398 L 99.828874,248.09971 C 99.828868,247.41084 99.694558,246.89526 99.425942,246.55298 C 99.157316,246.21071 98.754385,246.03957 98.217147,246.03956 C 97.571586,246.03957 97.062506,246.24537 96.689906,246.65696 C 96.3173,247.06856 96.130999,247.62963 96.131001,248.34017 L 96.131001,252.45398 L 94.928705,252.45398 L 94.928705,245.17521 L 96.131001,245.17521 L 96.131001,246.30602 C 96.41695,245.86843 96.752726,245.54132 97.13833,245.32468 C 97.52826,245.10806 97.976684,244.99975 98.483602,244.99974 C 99.319788,244.99975 99.952347,245.2597 100.38128,245.77961 C 100.8102,246.29519 101.02466,247.05556 101.02467,248.06072 M 104.60556,243.10856 L 104.60556,245.17521 L 107.06864,245.17521 L 107.06864,246.10455 L 104.60556,246.10455 L 104.60556,250.05588 C 104.60556,250.64945 104.68571,251.03072 104.84602,251.19969 C 105.01065,251.36866 105.3421,251.45315 105.84035,251.45315 L 107.06864,251.45315 L 107.06864,252.45398 L 105.84035,252.45398 C 104.9175,252.45398 104.28061,252.28284 103.92967,251.94056 C 103.57873,251.59396 103.40326,250.96573 103.40326,250.05588 L 103.40326,246.10455 L 102.52591,246.10455 L 102.52591,245.17521 L 103.40326,245.17521 L 103.40326,243.10856 L 104.60556,243.10856"
       transform="matrix(2.151429,0,0,3.214176,622.6252,-306.0824)"
       style="font-size:13.30974388px;font-style:normal;font-variant:normal;font-weight:normal;font-stretch:normal;text-align:start;line-height:125%;writing-mode:lr-tb;text-anchor:start;font-family:Bitstream Vera Sans"
       id="flowRoot1326" />
    <path
       d="M 28.430856,242.97172 L 28.430856,244.18684 C 28.042923,243.82554 27.628376,243.55552 27.187213,243.37676 C 26.749841,243.19802 26.283951,243.10864 25.789542,243.10864 C 24.815922,243.10864 24.070498,243.40719 23.553268,244.00429 C 23.036033,244.59759 22.777416,245.45711 22.777418,246.58285 C 22.777416,247.70479 23.036033,248.56431 23.553268,249.16141 C 24.070498,249.75471 24.815922,250.05136 25.789542,250.05135 C 26.283951,250.05136 26.749841,249.96198 27.187213,249.78323 C 27.628376,249.60448 28.042923,249.33446 28.430856,248.97315 L 28.430856,250.17686 C 28.027711,250.45069 27.599853,250.65606 27.14728,250.79298 C 26.698498,250.92989 26.2231,250.99835 25.721085,250.99835 C 24.431801,250.99835 23.416351,250.60472 22.674732,249.81746 C 21.933109,249.0264 21.562299,247.9482 21.5623,246.58285 C 21.562299,245.21371 21.933109,244.1355 22.674732,243.34824 C 23.416351,242.55718 24.431801,242.16165 25.721085,242.16164 C 26.230707,242.16165 26.709908,242.23011 27.15869,242.36702 C 27.611262,242.50014 28.035317,242.7017 28.430856,242.97172 M 30.176518,241.95627 L 31.226198,241.95627 L 31.226198,250.83291 L 30.176518,250.83291 L 30.176518,241.95627 M 33.416834,244.44356 L 34.466513,244.44356 L 34.466513,250.83291 L 33.416834,250.83291 L 33.416834,244.44356 M 33.416834,241.95627 L 34.466513,241.95627 L 34.466513,243.28549 L 33.416834,243.28549 L 33.416834,241.95627 M 41.631718,245.67008 C 41.894131,245.19849 42.207894,244.8505 42.573007,244.62611 C 42.938105,244.40173 43.367865,244.28953 43.862287,244.28953 C 44.527836,244.28953 45.041266,244.52343 45.402578,244.99121 C 45.76387,245.45521 45.944522,246.11696 45.944532,246.97648 L 45.944532,250.83291 L 44.889148,250.83291 L 44.889148,247.01071 C 44.889138,246.3984 44.780748,245.94392 44.563975,245.64726 C 44.347185,245.35062 44.016308,245.2023 43.571343,245.20229 C 43.02748,245.2023 42.59772,245.38295 42.282063,245.74425 C 41.966392,246.10555 41.80856,246.59807 41.808566,247.22178 L 41.808566,250.83291 L 40.753182,250.83291 L 40.753182,247.01071 C 40.753177,246.39459 40.644786,245.94011 40.428009,245.64726 C 40.211223,245.35062 39.876543,245.2023 39.423968,245.20229 C 38.887715,245.2023 38.461759,245.38485 38.146097,245.74995 C 37.83043,246.11126 37.672598,246.60187 37.6726,247.22178 L 37.6726,250.83291 L 36.617216,250.83291 L 36.617216,244.44356 L 37.6726,244.44356 L 37.6726,245.43619 C 37.912199,245.04446 38.199339,244.75542 38.534022,244.56906 C 38.868699,244.38271 39.266132,244.28953 39.726321,244.28953 C 40.190305,244.28953 40.583935,244.40743 40.907211,244.64322 C 41.234279,244.87903 41.475781,245.22131 41.631718,245.67008 M 50.947623,247.62112 C 50.099509,247.62112 49.511918,247.7181 49.184846,247.91206 C 48.85777,248.10603 48.694233,248.4369 48.694235,248.90469 C 48.694233,249.27741 48.815935,249.57406 49.059341,249.79464 C 49.306546,250.01142 49.641226,250.11981 50.063382,250.11981 C 50.645266,250.11981 51.111156,249.91444 51.461053,249.5037 C 51.814745,249.08915 51.991593,248.53959 51.991598,247.85501 L 51.991598,247.62112 L 50.947623,247.62112 M 53.041278,247.18756 L 53.041278,250.83291 L 51.991598,250.83291 L 51.991598,249.8631 C 51.751992,250.25102 51.453443,250.53816 51.095948,250.72452 C 50.738444,250.90707 50.301078,250.99835 49.783848,250.99835 C 49.129698,250.99835 48.608662,250.8158 48.220738,250.45069 C 47.836615,250.08178 47.644555,249.58927 47.644555,248.97315 C 47.644555,248.25435 47.884155,247.7124 48.363358,247.34729 C 48.84636,246.98219 49.565162,246.79963 50.519765,246.79963 L 51.991598,246.79963 L 51.991598,246.69694 C 51.991593,246.21394 51.831859,245.84123 51.512397,245.57881 C 51.196728,245.31259 50.751755,245.17948 50.177478,245.17947 C 49.812369,245.17948 49.456771,245.22321 49.110684,245.31068 C 48.764592,245.39816 48.431814,245.52937 48.112347,245.70431 L 48.112347,244.7345 C 48.496468,244.58618 48.86918,244.47589 49.230484,244.40362 C 49.591784,244.32756 49.943579,244.28953 50.285869,244.28953 C 51.210039,244.28953 51.900317,244.52913 52.356704,245.00833 C 52.813081,245.48754 53.041272,246.21394 53.041278,247.18756 M 60.520248,244.44356 L 58.209811,247.55266 L 60.640048,250.83291 L 59.402111,250.83291 L 57.542352,248.32281 L 55.682594,250.83291 L 54.444656,250.83291 L 56.926236,247.48991 L 54.655733,244.44356 L 55.893671,244.44356 L 57.58799,246.71976 L 59.28231,244.44356 L 60.520248,244.44356"
       transform="matrix(2.792085,0,0,3.214176,315.919,-718.3074)"
       style="font-size:11.68339062px;font-style:normal;font-variant:normal;font-weight:normal;font-stretch:normal;text-align:start;line-height:125%;writing-mode:lr-tb;text-anchor:start;font-family:Bitstream Vera Sans"
       id="flowRoot1342" />
    <path
       d="M -171.92676,385.20944 C -171.18622,385.46011 -170.46844,385.99559 -169.77344,386.81589 C -169.06708,387.63621 -168.3607,388.76414 -167.6543,390.19968 L -164.15088,397.17233 L -167.85938,397.17233 L -171.12354,390.62692 C -171.96665,388.91795 -172.78696,387.78432 -173.58447,387.22604 C -174.37062,386.66779 -175.44728,386.38865 -176.81445,386.38864 L -180.57422,386.38864 L -180.57422,397.17233 L -184.02637,397.17233 L -184.02637,371.6572 L -176.2334,371.6572 C -173.31675,371.65722 -171.14064,372.26676 -169.70508,373.48581 C -168.26955,374.70491 -167.55178,376.54491 -167.55176,379.00583 C -167.55178,380.61229 -167.92776,381.9453 -168.67969,383.00485 C -169.42027,384.06444 -170.50262,384.7993 -171.92676,385.20944 M -180.57422,374.49411 L -180.57422,383.55173 L -176.2334,383.55173 C -174.57,383.55174 -173.31675,383.17007 -172.47363,382.40671 C -171.61916,381.63199 -171.19191,380.49836 -171.1919,379.00583 C -171.19191,377.51334 -171.61916,376.39111 -172.47363,375.63913 C -173.31675,374.87581 -174.57,374.49414 -176.2334,374.49411 L -180.57422,374.49411 M -159.82715,378.03171 L -156.68262,378.03171 L -156.68262,397.17233 L -159.82715,397.17233 L -159.82715,378.03171 M -159.82715,370.58054 L -156.68262,370.58054 L -156.68262,374.56247 L -159.82715,374.56247 L -159.82715,370.58054 M -137.91797,378.59567 L -137.91797,381.56931 C -138.80666,381.11359 -139.72951,380.7718 -140.68653,380.54392 C -141.64357,380.31607 -142.63478,380.20214 -143.66016,380.20212 C -145.22104,380.20214 -146.39454,380.44139 -147.18067,380.91989 C -147.95541,381.39842 -148.34278,382.1162 -148.34278,383.07321 C -148.34278,383.80239 -148.06365,384.37775 -147.50538,384.79929 C -146.94711,385.20946 -145.82488,385.60252 -144.13868,385.97849 L -143.06202,386.21774 C -140.82896,386.69627 -139.2453,387.37417 -138.31104,388.25144 C -137.36542,389.11733 -136.8926,390.33071 -136.89258,391.89157 C -136.8926,393.66892 -137.59898,395.07598 -139.01172,396.11276 C -140.4131,397.14955 -142.34425,397.66794 -144.80518,397.66794 C -145.83058,397.66794 -146.90154,397.5654 -148.01807,397.36032 C -149.12322,397.16664 -150.29102,396.87041 -151.52149,396.47165 L -151.52149,393.22458 C -150.35938,393.82842 -149.21436,394.28415 -148.08643,394.59177 C -146.95851,394.88799 -145.84197,395.0361 -144.73682,395.0361 C -143.25571,395.0361 -142.11639,394.78545 -141.31885,394.28415 C -140.52134,393.77146 -140.12258,393.05368 -140.12256,392.13083 C -140.12258,391.27634 -140.4131,390.62123 -140.99415,390.1655 C -141.56382,389.70978 -142.82277,389.27114 -144.771,388.84958 L -145.86475,388.59323 C -147.813,388.18308 -149.22006,387.55646 -150.08594,386.71335 C -150.95183,385.85887 -151.38477,384.69106 -151.38477,383.20993 C -151.38477,381.40982 -150.74675,380.01985 -149.47071,379.04001 C -148.19467,378.06021 -146.38315,377.5703 -144.03614,377.57028 C -142.87404,377.5703 -141.78029,377.65575 -140.75489,377.82663 C -139.72951,377.99755 -138.78387,378.2539 -137.91797,378.59567 M -131.86817,378.03171 L -128.72364,378.03171 L -128.72364,397.17233 L -131.86817,397.17233 L -131.86817,378.03171 M -131.86817,370.58054 L -128.72364,370.58054 L -128.72364,374.56247 L -131.86817,374.56247 L -131.86817,370.58054 M -106.2505,385.6196 L -106.2505,397.17233 L -109.39503,397.17233 L -109.39503,385.72214 C -109.39504,383.91063 -109.74823,382.55484 -110.4546,381.65476 C -111.16099,380.75471 -112.22056,380.30468 -113.63331,380.30466 C -115.33091,380.30468 -116.66961,380.84585 -117.64942,381.92819 C -118.62925,383.01056 -119.11916,384.48599 -119.11915,386.35446 L -119.11915,397.17233 L -122.28077,397.17233 L -122.28077,378.03171 L -119.11915,378.03171 L -119.11915,381.00534 C -118.3672,379.85464 -117.48423,378.99446 -116.47022,378.42478 C -115.44484,377.85513 -114.26565,377.5703 -112.93263,377.57028 C -110.73375,377.5703 -109.07034,378.2539 -107.94239,379.62107 C -106.81448,380.97688 -106.25052,382.97638 -106.2505,385.6196 M -87.34913,387.37985 C -87.349146,385.10122 -87.821965,383.33527 -88.767587,382.082 C -89.701846,380.82876 -91.017762,380.20214 -92.715341,380.20212 C -94.401547,380.20214 -95.717464,380.82876 -96.663094,382.082 C -97.597345,383.33527 -98.064466,385.10122 -98.064461,387.37985 C -98.064466,389.64711 -97.597345,391.40737 -96.663094,392.66061 C -95.717464,393.91387 -94.401547,394.5405 -92.715341,394.5405 C -91.017762,394.5405 -89.701846,393.91387 -88.767587,392.66061 C -87.821965,391.40737 -87.349146,389.64711 -87.34913,387.37985 M -84.2046,394.79684 C -84.204619,398.05531 -84.928088,400.47637 -86.375009,402.06003 C -87.821965,403.65507 -90.037945,404.4526 -93.022958,404.45261 C -94.12811,404.4526 -95.170589,404.36715 -96.150399,404.19626 C -97.130223,404.03675 -98.081556,403.78609 -99.004403,403.4443 L -99.004403,400.38522 C -98.081556,400.88652 -97.170099,401.2568 -96.270028,401.49606 C -95.369971,401.73532 -94.452817,401.85494 -93.518563,401.85495 C -91.456401,401.85494 -89.91262,401.31377 -88.887216,400.23141 C -87.861841,399.16045 -87.349146,397.53692 -87.34913,395.36081 L -87.34913,393.80563 C -87.99856,394.93357 -88.830264,395.77666 -89.844247,396.33493 C -90.858257,396.8932 -92.071635,397.17233 -93.484384,397.17233 C -95.831396,397.17233 -97.72267,396.27797 -99.158211,394.48923 C -100.59376,392.7005 -101.31153,390.33071 -101.31153,387.37985 C -101.31153,384.41763 -100.59376,382.04214 -99.158211,380.25339 C -97.72267,378.46467 -95.831396,377.5703 -93.484384,377.57028 C -92.071635,377.5703 -90.858257,377.84944 -89.844247,378.40769 C -88.830264,378.96597 -87.99856,379.80907 -87.34913,380.93698 L -87.34913,378.03171 L -84.2046,378.03171 L -84.2046,394.79684 M -57.920419,375.05808 L -62.603036,387.75583 L -53.220713,387.75583 L -57.920419,375.05808 M -59.868661,371.6572 L -55.955087,371.6572 L -46.230967,397.17233 L -49.819834,397.17233 L -52.144053,390.62692 L -63.645516,390.62692 L -65.969735,397.17233 L -69.609871,397.17233 L -59.868661,371.6572 M -29.500017,378.76657 L -29.500017,381.70603 C -30.388705,381.21613 -31.283073,380.85155 -32.183122,380.61228 C -33.071808,380.36164 -33.971872,380.23632 -34.883317,380.2363 C -36.922715,380.23632 -38.506372,380.88573 -39.634293,382.18454 C -40.762229,383.47199 -41.326193,385.28351 -41.326188,387.61911 C -41.326193,389.95473 -40.762229,391.77195 -39.634293,393.07077 C -38.506372,394.35821 -36.922715,395.00193 -34.883317,395.00192 C -33.971872,395.00193 -33.071808,394.8823 -32.183122,394.64304 C -31.283073,394.39239 -30.388705,394.02211 -29.500017,393.5322 L -29.500017,396.43747 C -30.377312,396.84763 -31.288769,397.15524 -32.234392,397.36032 C -33.16865,397.5654 -34.165556,397.66794 -35.225114,397.66794 C -38.107609,397.66794 -40.397646,396.76218 -42.095231,394.95065 C -43.792824,393.13913 -44.641619,390.69529 -44.641617,387.61911 C -44.641619,384.49738 -43.787128,382.04214 -42.078141,380.25339 C -40.35777,378.46467 -38.00507,377.5703 -35.020036,377.57028 C -34.051624,377.5703 -33.105987,377.67284 -32.183122,377.8779 C -31.260286,378.07161 -30.365919,378.36783 -29.500017,378.76657 M -20.886735,372.59714 L -20.886735,378.03171 L -14.409685,378.03171 L -14.409685,380.47556 L -20.886735,380.47556 L -20.886735,390.86618 C -20.886741,392.42706 -20.675967,393.42966 -20.254411,393.87399 C -19.821475,394.31833 -18.949894,394.5405 -17.639665,394.5405 L -14.409685,394.5405 L -14.409685,397.17233 L -17.639665,397.17233 C -20.06643,397.17233 -21.741232,396.7223 -22.664078,395.82224 C -23.586933,394.91078 -24.048359,393.25876 -24.048355,390.86618 L -24.048355,380.47556 L -26.355484,380.47556 L -26.355484,378.03171 L -24.048355,378.03171 L -24.048355,372.59714 L -20.886735,372.59714 M -10.256852,378.03171 L -7.1123206,378.03171 L -7.1123206,397.17233 L -10.256852,397.17233 L -10.256852,378.03171 M -10.256852,370.58054 L -7.1123206,370.58054 L -7.1123206,374.56247 L -10.256852,374.56247 L -10.256852,370.58054 M 6.8671711,380.2363 C 5.1809643,380.23632 3.847958,380.89712 2.8681481,382.21872 C 1.8883247,383.52896 1.3984164,385.32908 1.3984217,387.61911 C 1.3984164,389.90916 1.8826281,391.71498 2.8510582,393.03659 C 3.8308682,394.34682 5.1695711,395.00193 6.8671711,395.00192 C 8.5419632,395.00193 9.8692729,394.34112 10.849104,393.0195 C 11.828906,391.69789 12.318814,389.89776 12.318831,387.61911 C 12.318814,385.35187 11.828906,383.55744 10.849104,382.23581 C 9.8692729,380.90282 8.5419632,380.23632 6.8671711,380.2363 M 6.8671711,377.57028 C 9.6015323,377.5703 11.749154,378.45897 13.310041,380.2363 C 14.870895,382.01366 15.65133,384.47459 15.65135,387.61911 C 15.65133,390.75226 14.870895,393.21319 13.310041,395.00192 C 11.749154,396.77927 9.6015323,397.66794 6.8671711,397.66794 C 4.1213952,397.66794 1.9680772,396.77927 0.40721084,395.00192 C -1.1422709,393.21319 -1.9170096,390.75226 -1.9170077,387.61911 C -1.9170096,384.47459 -1.1422709,382.01366 0.40721084,380.2363 C 1.9680772,378.45897 4.1213952,377.5703 6.8671711,377.57028 M 36.757307,385.6196 L 36.757307,397.17233 L 33.612776,397.17233 L 33.612776,385.72214 C 33.61276,383.91063 33.25957,382.55484 32.553206,381.65476 C 31.846811,380.75471 30.787242,380.30468 29.374495,380.30466 C 27.676894,380.30468 26.338191,380.84585 25.358382,381.92819 C 24.378558,383.01056 23.88865,384.48599 23.888656,386.35446 L 23.888656,397.17233 L 20.727035,397.17233 L 20.727035,378.03171 L 23.888656,378.03171 L 23.888656,381.00534 C 24.640602,379.85464 25.523576,378.99446 26.537581,378.42478 C 27.562962,377.85513 28.74216,377.5703 30.075179,377.57028 C 32.274057,377.5703 33.937467,378.2539 35.065413,379.62107 C 36.193323,380.97688 36.757288,382.97638 36.757307,385.6196"
       transform="matrix(0.55124,-0.816897,0.89034,0.494674,0,0)"
       style="font-size:34.99999619px;font-style:normal;font-variant:normal;font-weight:normal;font-stretch:normal;text-align:start;line-height:125%;writing-mode:lr-tb;text-anchor:start;fill:#000000;fill-opacity:1;stroke:none;stroke-width:1px;stroke-linecap:butt;stroke-linejoin:miter;stroke-opacity:1;font-family:Bitstream Vera Sans"
       id="text1350" />
    <path
       d="M 452.9353,-334.32971 L 467.59839,-334.32971 L 467.59839,-331.42444 L 456.38745,-331.42444 L 456.38745,-323.90491 L 466.50464,-323.90491 L 466.50464,-320.99963 L 456.38745,-320.99963 L 456.38745,-308.81458 L 452.9353,-308.81458 L 452.9353,-334.32971 M 478.45044,-318.43616 C 475.90974,-318.43615 474.14949,-318.14562 473.16968,-317.56458 C 472.18985,-316.98351 471.69995,-315.9923 471.69995,-314.59094 C 471.69995,-313.4744 472.06453,-312.58573 472.7937,-311.92493 C 473.53425,-311.27551 474.53686,-310.9508 475.80151,-310.95081 C 477.54467,-310.9508 478.94034,-311.56604 479.98853,-312.79651 C 481.04808,-314.03837 481.57787,-315.68469 481.57788,-317.73547 L 481.57788,-318.43616 L 478.45044,-318.43616 M 484.72241,-319.73499 L 484.72241,-308.81458 L 481.57788,-308.81458 L 481.57788,-311.71985 C 480.86009,-310.55774 479.96573,-309.69755 478.89478,-309.13928 C 477.8238,-308.59241 476.51358,-308.31897 474.96411,-308.31897 C 473.00447,-308.31897 471.4436,-308.86584 470.28149,-309.95959 C 469.13078,-311.06474 468.55542,-312.54016 468.55542,-314.38586 C 468.55542,-316.53918 469.27319,-318.16271 470.70874,-319.25647 C 472.15567,-320.35021 474.30899,-320.89708 477.1687,-320.89709 L 481.57788,-320.89709 L 481.57788,-321.20471 C 481.57787,-322.65164 481.09935,-323.76817 480.14233,-324.55432 C 479.19668,-325.35183 477.86368,-325.75059 476.14331,-325.75061 C 475.04955,-325.75059 473.98429,-325.61957 472.94751,-325.35754 C 471.91072,-325.09548 470.91381,-324.70242 469.95679,-324.17834 L 469.95679,-327.08362 C 471.1075,-327.52794 472.22403,-327.85834 473.3064,-328.07483 C 474.38875,-328.30267 475.44262,-328.41661 476.46802,-328.41663 C 479.23656,-328.41661 481.30443,-327.69883 482.67163,-326.26331 C 484.0388,-324.82774 484.72239,-322.65164 484.72241,-319.73499 M 491.21655,-335.40637 L 494.36108,-335.40637 L 494.36108,-308.81458 L 491.21655,-308.81458 L 491.21655,-335.40637 M 500.92358,-335.40637 L 504.06812,-335.40637 L 504.06812,-308.81458 L 500.92358,-308.81458 L 500.92358,-335.40637 M 510.63062,-327.9552 L 513.77515,-327.9552 L 513.77515,-308.81458 L 510.63062,-308.81458 L 510.63062,-327.9552 M 510.63062,-335.40637 L 513.77515,-335.40637 L 513.77515,-331.42444 L 510.63062,-331.42444 L 510.63062,-335.40637 M 536.24829,-320.36731 L 536.24829,-308.81458 L 533.10376,-308.81458 L 533.10376,-320.26477 C 533.10374,-322.07628 532.75055,-323.43207 532.04419,-324.33215 C 531.33779,-325.2322 530.27823,-325.68223 528.86548,-325.68225 C 527.16788,-325.68223 525.82917,-325.14106 524.84937,-324.05872 C 523.86954,-322.97634 523.37963,-321.50092 523.37964,-319.63245 L 523.37964,-308.81458 L 520.21802,-308.81458 L 520.21802,-327.9552 L 523.37964,-327.9552 L 523.37964,-324.98157 C 524.13158,-326.13227 525.01456,-326.99245 526.02856,-327.56213 C 527.05395,-328.13178 528.23314,-328.41661 529.56616,-328.41663 C 531.76504,-328.41661 533.42845,-327.73301 534.5564,-326.36584 C 535.68431,-325.01003 536.24827,-323.01052 536.24829,-320.36731 M 555.14966,-318.60706 C 555.14964,-320.88569 554.67682,-322.65164 553.7312,-323.90491 C 552.79694,-325.15815 551.48103,-325.78477 549.78345,-325.78479 C 548.09724,-325.78477 546.78132,-325.15815 545.83569,-323.90491 C 544.90144,-322.65164 544.43432,-320.88569 544.43433,-318.60706 C 544.43432,-316.3398 544.90144,-314.57954 545.83569,-313.32629 C 546.78132,-312.07304 548.09724,-311.44641 549.78345,-311.44641 C 551.48103,-311.44641 552.79694,-312.07304 553.7312,-313.32629 C 554.67682,-314.57954 555.14964,-316.3398 555.14966,-318.60706 M 558.29419,-311.19006 C 558.29417,-307.9316 557.5707,-305.51054 556.12378,-303.92688 C 554.67682,-302.33183 552.46084,-301.53431 549.47583,-301.5343 C 548.37068,-301.53431 547.3282,-301.61976 546.34839,-301.79065 C 545.36856,-301.95016 544.41723,-302.20081 543.49438,-302.5426 L 543.49438,-305.60168 C 544.41723,-305.10039 545.32869,-304.73011 546.22876,-304.49084 C 547.12882,-304.25159 548.04597,-304.13196 548.98022,-304.13196 C 551.04239,-304.13196 552.58617,-304.67314 553.61157,-305.75549 C 554.63695,-306.82646 555.14964,-308.44999 555.14966,-310.6261 L 555.14966,-312.18127 C 554.50023,-311.05334 553.66852,-310.21024 552.65454,-309.65198 C 551.64053,-309.09371 550.42715,-308.81458 549.0144,-308.81458 C 546.66739,-308.81458 544.77612,-309.70894 543.34058,-311.49768 C 541.90503,-313.28641 541.18725,-315.6562 541.18726,-318.60706 C 541.18725,-321.56928 541.90503,-323.94477 543.34058,-325.73352 C 544.77612,-327.52224 546.66739,-328.41661 549.0144,-328.41663 C 550.42715,-328.41661 551.64053,-328.13747 552.65454,-327.57922 C 553.66852,-327.02094 554.50023,-326.17784 555.14966,-325.04993 L 555.14966,-327.9552 L 558.29419,-327.9552 L 558.29419,-311.19006 M 584.57837,-330.92883 L 579.89575,-318.23108 L 589.27808,-318.23108 L 584.57837,-330.92883 M 582.63013,-334.32971 L 586.5437,-334.32971 L 596.26782,-308.81458 L 592.67896,-308.81458 L 590.35474,-315.35999 L 578.85327,-315.35999 L 576.52905,-308.81458 L 572.88892,-308.81458 L 582.63013,-334.32971 M 612.99878,-327.22034 L 612.99878,-324.28088 C 612.11009,-324.77078 611.21572,-325.13536 610.31567,-325.37463 C 609.42699,-325.62527 608.52692,-325.75059 607.61548,-325.75061 C 605.57608,-325.75059 603.99242,-325.10118 602.8645,-323.80237 C 601.73657,-322.51492 601.1726,-320.7034 601.17261,-318.3678 C 601.1726,-316.03218 601.73657,-314.21496 602.8645,-312.91614 C 603.99242,-311.6287 605.57608,-310.98498 607.61548,-310.98499 C 608.52692,-310.98498 609.42699,-311.10461 610.31567,-311.34387 C 611.21572,-311.59452 612.11009,-311.9648 612.99878,-312.45471 L 612.99878,-309.54944 C 612.12148,-309.13928 611.21003,-308.83167 610.2644,-308.62659 C 609.33015,-308.42151 608.33324,-308.31897 607.27368,-308.31897 C 604.39119,-308.31897 602.10115,-309.22473 600.40356,-311.03625 C 598.70597,-312.84777 597.85718,-315.29162 597.85718,-318.3678 C 597.85718,-321.48953 598.71167,-323.94477 600.42065,-325.73352 C 602.14103,-327.52224 604.49373,-328.41661 607.47876,-328.41663 C 608.44717,-328.41661 609.39281,-328.31407 610.31567,-328.10901 C 611.23851,-327.9153 612.13288,-327.61908 612.99878,-327.22034 M 621.61206,-333.38977 L 621.61206,-327.9552 L 628.08911,-327.9552 L 628.08911,-325.51135 L 621.61206,-325.51135 L 621.61206,-315.12073 C 621.61205,-313.55985 621.82283,-312.55725 622.24438,-312.11292 C 622.67732,-311.66858 623.5489,-311.44641 624.85913,-311.44641 L 628.08911,-311.44641 L 628.08911,-308.81458 L 624.85913,-308.81458 C 622.43237,-308.81458 620.75756,-309.26461 619.83472,-310.16467 C 618.91186,-311.07613 618.45044,-312.72815 618.45044,-315.12073 L 618.45044,-325.51135 L 616.14331,-325.51135 L 616.14331,-327.9552 L 618.45044,-327.9552 L 618.45044,-333.38977 L 621.61206,-333.38977 M 632.24194,-327.9552 L 635.38647,-327.9552 L 635.38647,-308.81458 L 632.24194,-308.81458 L 632.24194,-327.9552 M 632.24194,-335.40637 L 635.38647,-335.40637 L 635.38647,-331.42444 L 632.24194,-331.42444 L 632.24194,-335.40637 M 649.36597,-325.75061 C 647.67976,-325.75059 646.34675,-325.08979 645.36694,-323.76819 C 644.38712,-322.45795 643.89721,-320.65783 643.89722,-318.3678 C 643.89721,-316.07775 644.38142,-314.27193 645.34985,-312.95032 C 646.32966,-311.64009 647.66837,-310.98498 649.36597,-310.98499 C 651.04076,-310.98498 652.36807,-311.64579 653.3479,-312.96741 C 654.3277,-314.28902 654.81761,-316.08914 654.81763,-318.3678 C 654.81761,-320.63504 654.3277,-322.42947 653.3479,-323.7511 C 652.36807,-325.08409 651.04076,-325.75059 649.36597,-325.75061 M 649.36597,-328.41663 C 652.10033,-328.41661 654.24795,-327.52794 655.80884,-325.75061 C 657.36969,-323.97325 658.15013,-321.51232 658.15015,-318.3678 C 658.15013,-315.23465 657.36969,-312.77372 655.80884,-310.98499 C 654.24795,-309.20764 652.10033,-308.31897 649.36597,-308.31897 C 646.62019,-308.31897 644.46687,-309.20764 642.90601,-310.98499 C 641.35652,-312.77372 640.58179,-315.23465 640.58179,-318.3678 C 640.58179,-321.51232 641.35652,-323.97325 642.90601,-325.75061 C 644.46687,-327.52794 646.62019,-328.41661 649.36597,-328.41663 M 679.2561,-320.36731 L 679.2561,-308.81458 L 676.11157,-308.81458 L 676.11157,-320.26477 C 676.11156,-322.07628 675.75837,-323.43207 675.052,-324.33215 C 674.34561,-325.2322 673.28604,-325.68223 671.87329,-325.68225 C 670.17569,-325.68223 668.83699,-325.14106 667.85718,-324.05872 C 666.87735,-322.97634 666.38744,-321.50092 666.38745,-319.63245 L 666.38745,-308.81458 L 663.22583,-308.81458 L 663.22583,-327.9552 L 666.38745,-327.9552 L 666.38745,-324.98157 C 667.1394,-326.13227 668.02237,-326.99245 669.03638,-327.56213 C 670.06176,-328.13178 671.24096,-328.41661 672.57397,-328.41663 C 674.77285,-328.41661 676.43626,-327.73301 677.56421,-326.36584 C 678.69212,-325.01003 679.25608,-323.01052 679.2561,-320.36731"
       transform="matrix(0.550913,0.817115,-0.792183,0.640202,0,0)"
       style="font-size:35px;font-style:normal;font-variant:normal;font-weight:normal;font-stretch:normal;text-align:start;line-height:125%;writing-mode:lr-tb;text-anchor:start;fill:#000000;fill-opacity:1;stroke:none;stroke-width:1px;stroke-linecap:butt;stroke-linejoin:miter;stroke-opacity:1;font-family:Bitstream Vera Sans"
       id="text1354" />
  </g>
</svg>
